<?xml version="1.0" encoding="utf-8"?>
<!-- Generator: Adobe Illustrator 26.0.0, SVG Export Plug-In . SVG Version: 6.00 Build 0)  -->
<svg version="1.1" id="Layer_1" xmlns="http://www.w3.org/2000/svg" xmlns:xlink="http://www.w3.org/1999/xlink" x="0px" y="0px"
	 viewBox="0 0 27.1 22.8" style="enable-background:new 0 0 27.1 22.8;" xml:space="preserve">
<style type="text/css">
	.st0{fill:#38BDF8;}
</style>
<path class="st0" d="M13.2,4C9.7,4,7.5,5.8,6.6,9.3c1.3-1.8,2.9-2.4,4.6-2c1,0.2,1.7,1,2.5,1.8c1.3,1.3,2.8,2.9,6.1,2.9
	c3.5,0,5.7-1.8,6.6-5.3c-1.3,1.8-2.9,2.4-4.6,2c-1-0.2-1.7-1-2.5-1.8C18,5.5,16.5,4,13.2,4z M6.6,11.9c-3.5,0-5.7,1.8-6.6,5.3
	c1.3-1.8,2.9-2.4,4.6-2c1,0.2,1.7,1,2.5,1.8c1.3,1.3,2.8,2.9,6.1,2.9c3.5,0,5.7-1.8,6.6-5.3c-1.3,1.8-2.9,2.4-4.6,2
	c-1-0.2-1.7-1-2.5-1.8C11.4,13.4,9.9,11.9,6.6,11.9z"/>
</svg>
